<?xml version="1.0" encoding="UTF-8" standalone="no"?>
<svg width="24px" height="24px" viewBox="0 0 24 24" version="1.1" xmlns="http://www.w3.org/2000/svg" xmlns:xlink="http://www.w3.org/1999/xlink" xmlns:sketch="http://www.bohemiancoding.com/sketch/ns">
    <!-- Generator: Sketch 3.4.1 (15681) - http://www.bohemiancoding.com/sketch -->
    <title>facebook_alt</title>
    <desc>Created with Sketch.</desc>
    <defs></defs>
    <g id="Designs" stroke="none" stroke-width="1" fill="none" fill-rule="evenodd" sketch:type="MSPage">
        <g id="Homepage" sketch:type="MSArtboardGroup" transform="translate(-129.000000, -3129.000000)" fill="#FFFFFF">
            <g id="Footer" sketch:type="MSLayerGroup" transform="translate(0.000000, 3062.000000)">
                <g id="facebook_alt" transform="translate(129.000000, 67.000000)" sketch:type="MSShapeGroup">
                    <path d="M12,0 C5.37274392,0 0,5.37274392 0,12.0010463 C0,18.6283024 5.37274392,24.0010463 12,24.0010463 C18.6272561,24.0010463 24,18.6283024 24,12.0010463 C24,5.37274392 18.6272561,0 12,0 L12,0 Z M15.0311274,11.9068794 L13.1498823,11.9068794 L13.1498823,18.721423 L10.3311535,18.721423 L10.3311535,11.9068794 L8.92178917,11.9068794 L8.92178917,9.55898509 L10.3311535,9.55898509 L10.3311535,8.14857442 C10.3311535,6.23280146 11.1263406,5.09338216 13.3863458,5.09338216 L15.2675909,5.09338216 L15.2675909,7.44232278 L14.0915511,7.44232278 C13.2116139,7.44232278 13.1530212,7.76981428 13.1530212,8.38294533 L13.1498823,9.55793879 L15.2801465,9.55793879 L15.0311274,11.9068794 L15.0311274,11.9068794 Z" id="Shape"></path>
                </g>
            </g>
        </g>
    </g>
</svg>