<?xml version="1.0" encoding="UTF-8" standalone="no"?>
<svg width="25px" height="25px" viewBox="0 0 25 25" version="1.1" xmlns="http://www.w3.org/2000/svg" xmlns:xlink="http://www.w3.org/1999/xlink" xmlns:sketch="http://www.bohemiancoding.com/sketch/ns">
    <!-- Generator: Sketch 3.4.1 (15681) - http://www.bohemiancoding.com/sketch -->
    <title>Shape</title>
    <desc>Created with Sketch.</desc>
    <defs></defs>
    <g id="Designs" stroke="none" stroke-width="1" fill="none" fill-rule="evenodd" sketch:type="MSPage">
        <g id="Product-Deal" sketch:type="MSArtboardGroup" transform="translate(-340.000000, -451.000000)" fill="#959595">
            <g id="Header" sketch:type="MSLayerGroup" transform="translate(90.000000, 195.000000)">
                <g id="Slider" transform="translate(40.000000, 29.000000)" sketch:type="MSShapeGroup">
                    <path d="M235,236 L234,236 L234,251.999 L223,251.999 L222,251.999 L211,251.999 L211,236 L210,236 L210,232 L217.778,232 C217.299,231.469 217,230.771 217,230 C217,228.342 218.343,227 220,227 C221.044,227 221.963,227.535 222.5,228.345 C223.037,227.535 223.955,227 225,227 C226.656,227 228,228.343 228,230 C228,230.771 227.7,231.468 227.221,232 L235,232 L235,236 L235,236 Z M223,250.999 L233,250.999 L233,243.999 L223,243.999 L223,250.999 L223,250.999 Z M223,243 L233,243 L233,236 L223,236 L223,243 L223,243 Z M212,250.999 L222,250.999 L222,243.999 L212,243.999 L212,242.999 L222,242.999 L222,235.999 L212,235.999 L212,250.999 L212,250.999 Z M220,227.999 C218.895,227.999 218,228.895 218,229.999 C218,231.103 218.895,231.998 220,231.998 C221.104,231.998 222,231.103 222,229.999 C222,228.895 221.104,227.999 220,227.999 L220,227.999 Z M222.507,231.641 C222.423,231.77 222.323,231.886 222.221,232 L222.779,232 C222.678,231.889 222.591,231.766 222.507,231.641 L222.507,231.641 Z M225,227.999 C223.895,227.999 223,228.895 223,229.999 C223,231.103 223.895,231.998 225,231.998 C226.104,231.998 227,231.103 227,229.999 C227,228.895 226.104,227.999 225,227.999 L225,227.999 Z M234,232.999 L225.004,232.999 L225,232.999 L224.996,232.999 L220.004,232.999 L220,232.999 L219.996,232.999 L211,232.999 L211,234.999 L234,234.999 L234,232.999 L234,232.999 Z" id="Shape"></path>
                </g>
            </g>
        </g>
    </g>
</svg>