<?xml version="1.0" encoding="UTF-8" standalone="no"?>
<svg width="23px" height="25px" viewBox="0 0 23 25" version="1.1" xmlns="http://www.w3.org/2000/svg" xmlns:xlink="http://www.w3.org/1999/xlink" xmlns:sketch="http://www.bohemiancoding.com/sketch/ns">
    <!-- Generator: Sketch 3.4.1 (15681) - http://www.bohemiancoding.com/sketch -->
    <title>Shape</title>
    <desc>Created with Sketch.</desc>
    <defs></defs>
    <g id="Designs" stroke="none" stroke-width="1" fill="none" fill-rule="evenodd" sketch:type="MSPage">
        <g id="Product-Deal" sketch:type="MSArtboardGroup" transform="translate(-149.000000, -451.000000)" fill="#959595">
            <g id="Header" sketch:type="MSLayerGroup" transform="translate(90.000000, 195.000000)">
                <g id="Slider" transform="translate(40.000000, 29.000000)" sketch:type="MSShapeGroup">
                    <path d="M42,232.503 L42,250.439 C42,251.301 41.313,252.001 40.466,252.001 L20.533,252.001 C19.686,252.001 19,251.301 19,250.439 L19,228.563 C19,227.701 19.686,227 20.533,227 L40.466,227 C41.313,227 42,227.7 42,228.563 L42,232.503 C42,232.502 42,232.502 42,232.503 L42,232.503 L42,232.503 Z M41,229.002 C41,228.45 40.552,228.002 40,228.002 L21,228.002 C20.447,228.002 20,228.45 20,229.002 L20,232.002 L41,232.002 L41,229.002 L41,229.002 Z M41,233.002 L20,233.002 L20,250.002 C20,250.555 20.447,251.002 21,251.002 L40,251.002 C40.552,251.002 41,250.555 41,250.002 L41,233.002 L41,233.002 Z M38,248.002 L35,248.002 C34.447,248.002 34,247.555 34,247.002 L34,244.002 C34,243.45 34.447,243.002 35,243.002 L38,243.002 C38.552,243.002 39,243.45 39,244.002 L39,247.002 C39,247.555 38.552,248.002 38,248.002 L38,248.002 Z M38,244.002 L35,244.002 L35,247.002 L38,247.002 L38,244.002 L38,244.002 Z M38,241.002 L35,241.002 C34.447,241.002 34,240.555 34,240.002 L34,237.002 C34,236.45 34.447,236.002 35,236.002 L38,236.002 C38.552,236.002 39,236.45 39,237.002 L39,240.002 C39,240.555 38.552,241.002 38,241.002 L38,241.002 Z M38,237.002 L35,237.002 L35,240.002 L38,240.002 L38,237.002 L38,237.002 Z M32,248.002 L29,248.002 C28.447,248.002 28,247.555 28,247.002 L28,244.002 C28,243.45 28.447,243.002 29,243.002 L32,243.002 C32.552,243.002 33,243.45 33,244.002 L33,247.002 C33,247.555 32.552,248.002 32,248.002 L32,248.002 Z M32,244.002 L29,244.002 L29,247.002 L32,247.002 L32,244.002 L32,244.002 Z M32,241.002 L29,241.002 C28.447,241.002 28,240.555 28,240.002 L28,237.002 C28,236.45 28.447,236.002 29,236.002 L32,236.002 C32.552,236.002 33,236.45 33,237.002 L33,240.002 C33,240.555 32.552,241.002 32,241.002 L32,241.002 Z M32,237.002 L29,237.002 L29,240.002 L32,240.002 L32,237.002 L32,237.002 Z M26,248.002 L23,248.002 C22.447,248.002 22,247.555 22,247.002 L22,244.002 C22,243.45 22.447,243.002 23,243.002 L26,243.002 C26.552,243.002 27,243.45 27,244.002 L27,247.002 C27,247.555 26.552,248.002 26,248.002 L26,248.002 Z M26,244.002 L23,244.002 L23,247.002 L26,247.002 L26,244.002 L26,244.002 Z M26,241.002 L23,241.002 C22.447,241.002 22,240.555 22,240.002 L22,237.002 C22,236.45 22.447,236.002 23,236.002 L26,236.002 C26.552,236.002 27,236.45 27,237.002 L27,240.002 C27,240.555 26.552,241.002 26,241.002 L26,241.002 Z M26,237.002 L23,237.002 L23,240.002 L26,240.002 L26,237.002 L26,237.002 Z" id="Shape"></path>
                </g>
            </g>
        </g>
    </g>
</svg>