<?xml version="1.0" encoding="UTF-8" standalone="no"?>
<svg width="24px" height="24px" viewBox="0 0 24 24" version="1.1" xmlns="http://www.w3.org/2000/svg" xmlns:xlink="http://www.w3.org/1999/xlink" xmlns:sketch="http://www.bohemiancoding.com/sketch/ns">
    <!-- Generator: Sketch 3.4.1 (15681) - http://www.bohemiancoding.com/sketch -->
    <title>pinterest-box</title>
    <desc>Created with Sketch.</desc>
    <defs></defs>
    <g id="Designs" stroke="none" stroke-width="1" fill="none" fill-rule="evenodd" sketch:type="MSPage">
        <g id="Homepage" sketch:type="MSArtboardGroup" transform="translate(-197.000000, -3129.000000)" fill="#FFFFFF">
            <g id="Footer" sketch:type="MSLayerGroup" transform="translate(0.000000, 3062.000000)">
                <g id="pinterest-box" transform="translate(197.000000, 67.000000)" sketch:type="MSShapeGroup">
                    <path d="M11.9985007,0 C5.37181409,0 0,5.37181409 0,11.9985007 C0,16.9115442 2.95502249,21.1334333 7.18290855,22.988006 C7.14842579,22.1484258 7.17691154,21.1454273 7.39130435,20.2338831 C7.62218891,19.2593703 8.93553223,13.6956522 8.93553223,13.6956522 C8.93553223,13.6956522 8.55172414,12.928036 8.55172414,11.7961019 C8.55172414,10.017991 9.5832084,8.69115442 10.8650675,8.69115442 C11.9565217,8.69115442 12.4842579,9.51124438 12.4842579,10.4917541 C12.4842579,11.5892054 11.7856072,13.2293853 11.4242879,14.7511244 C11.1229385,16.0224888 12.0614693,17.0614693 13.3178411,17.0614693 C15.5922039,17.0614693 17.1229385,14.1409295 17.1229385,10.6821589 C17.1229385,8.05247376 15.3523238,6.08545727 12.1304348,6.08545727 C8.49175412,6.08545727 6.22338831,8.79910045 6.22338831,11.8290855 C6.22338831,12.8755622 6.53223388,13.6131934 7.0149925,14.1829085 C7.23688156,14.4452774 7.26836582,14.5502249 7.1874063,14.8515742 C7.13043478,15.0704648 6.99850075,15.6041979 6.94302849,15.814093 C6.86356822,16.1184408 6.61769115,16.2263868 6.34332834,16.113943 C4.66716642,15.4302849 3.88605697,13.5937031 3.88605697,11.5292354 C3.88605697,8.12293853 6.76011994,4.03448276 12.4617691,4.03448276 C17.041979,4.03448276 20.0569715,7.34932534 20.0569715,10.9070465 C20.0569715,15.6161919 17.4392804,19.1304348 13.5832084,19.1304348 C12.2878561,19.1304348 11.0689655,18.4302849 10.6521739,17.6356822 C10.6521739,17.6356822 9.95652174,20.4002999 9.80809595,20.934033 C9.55322339,21.8590705 9.05547226,22.7826087 8.6011994,23.5037481 C9.67916042,23.8215892 10.82009,23.9955022 12.0014993,23.9955022 C18.6266867,23.9955022 24,18.6236882 24,11.9970015 C24,5.37031484 18.6236882,0 11.9985007,0 L11.9985007,0 Z" id="Pinterest"></path>
                </g>
            </g>
        </g>
    </g>
</svg>