<?xml version="1.0" encoding="UTF-8" standalone="no"?>
<svg width="24px" height="24px" viewBox="0 0 24 24" version="1.1" xmlns="http://www.w3.org/2000/svg" xmlns:xlink="http://www.w3.org/1999/xlink" xmlns:sketch="http://www.bohemiancoding.com/sketch/ns">
    <!-- Generator: Sketch 3.4.1 (15681) - http://www.bohemiancoding.com/sketch -->
    <title>twitter-box</title>
    <desc>Created with Sketch.</desc>
    <defs></defs>
    <g id="Designs" stroke="none" stroke-width="1" fill="none" fill-rule="evenodd" sketch:type="MSPage">
        <g id="Homepage" sketch:type="MSArtboardGroup" transform="translate(-163.000000, -3129.000000)" fill="#FFFFFF">
            <g id="Footer" sketch:type="MSLayerGroup" transform="translate(0.000000, 3062.000000)">
                <g id="twitter-box" transform="translate(163.000000, 67.000000)" sketch:type="MSShapeGroup">
                    <path d="M12,0 C5.37274392,0 0,5.37274392 0,12.0010463 C0,18.6283024 5.37274392,24.0010463 12,24.0010463 C18.6272561,24.0010463 24,18.6283024 24,12.0010463 C24,5.37274392 18.6272561,0 12,0 L12,0 Z M17.5694481,9.19591943 C17.5757259,9.31519749 17.5778185,9.43342924 17.5778185,9.5537536 C17.5778185,13.2074287 14.7988491,17.4187811 9.712791,17.4187811 C8.15066702,17.4187811 6.69840439,16.9605022 5.47528119,16.1768245 C5.69081873,16.202982 5.91158776,16.2155375 6.13549568,16.2155375 C7.4297672,16.2155375 8.62150144,15.7739995 9.56840178,15.0321737 C8.35888046,15.0102014 7.33769291,14.2108292 6.98509024,13.1132618 C7.15459064,13.1456971 7.32827622,13.1624379 7.5071933,13.1624379 C7.75935129,13.1624379 8.0031389,13.1289563 8.23437091,13.0661784 C6.97044206,12.8119278 6.01621763,11.6944808 6.01621763,10.3562647 C6.01621763,10.3447554 6.01621763,10.3332461 6.01831023,10.3217369 C6.38974627,10.528904 6.81768245,10.6523673 7.2686372,10.6670154 C6.5268114,10.1710698 6.0381899,9.32461418 6.0381899,8.36515825 C6.0381899,7.85874967 6.17420874,7.38373005 6.41381114,6.97567355 C7.77713837,8.64870521 9.81218938,9.74836516 12.1098614,9.86345802 C12.0617316,9.66152236 12.0387131,9.45017002 12.0387131,9.23358619 C12.0387131,7.70703636 13.2754381,6.46926498 14.8030343,6.46926498 C15.5961287,6.46926498 16.3170285,6.80512686 16.8202982,7.34187811 C17.4491237,7.21736856 18.0413288,6.98822914 18.5738948,6.67120063 C18.367774,7.31676694 17.9304211,7.85770337 17.3601883,8.19984306 C17.9178656,8.13392624 18.4504316,7.98430552 18.9474235,7.76458279 C18.5770337,8.32016741 18.1093382,8.80669631 17.5694481,9.19591943 L17.5694481,9.19591943 Z" id="Shape"></path>
                </g>
            </g>
        </g>
    </g>
</svg>